<svg width="414" height="736" viewBox="0 0 414 736" fill="none" xmlns="http://www.w3.org/2000/svg">
<rect width="414" height="736" fill="white"/>
<rect y="50" width="414" height="686" fill="#F5F5F5"/>
<rect width="414" height="50" fill="#DA5C5C"/>
<path d="M193.278 24.4521C193.278 26.5674 192.675 28.1875 191.468 29.3125C190.267 30.4375 188.529 31 186.256 31H182.617V18.1504H186.651C188.749 18.1504 190.378 18.7041 191.538 19.8115C192.698 20.9189 193.278 22.4658 193.278 24.4521ZM190.448 24.5225C190.448 21.7627 189.23 20.3828 186.792 20.3828H185.342V28.75H186.511C189.136 28.75 190.448 27.3408 190.448 24.5225ZM203.256 27.4316C203.256 28.5918 202.838 29.5059 202 30.1738C201.168 30.8418 200.007 31.1758 198.519 31.1758C197.148 31.1758 195.935 30.918 194.881 30.4023V27.8711C195.748 28.2578 196.48 28.5303 197.078 28.6885C197.681 28.8467 198.232 28.9258 198.73 28.9258C199.328 28.9258 199.785 28.8115 200.101 28.583C200.423 28.3545 200.585 28.0146 200.585 27.5635C200.585 27.3115 200.514 27.0889 200.374 26.8955C200.233 26.6963 200.025 26.5059 199.75 26.3242C199.48 26.1426 198.926 25.8525 198.089 25.4541C197.303 25.085 196.714 24.7305 196.322 24.3906C195.929 24.0508 195.616 23.6553 195.381 23.2041C195.147 22.7529 195.03 22.2256 195.03 21.6221C195.03 20.4854 195.414 19.5918 196.181 18.9414C196.955 18.291 198.021 17.9658 199.381 17.9658C200.048 17.9658 200.684 18.0449 201.288 18.2031C201.897 18.3613 202.533 18.584 203.195 18.8711L202.316 20.9893C201.631 20.708 201.062 20.5117 200.611 20.4004C200.166 20.2891 199.726 20.2334 199.293 20.2334C198.777 20.2334 198.381 20.3535 198.106 20.5938C197.831 20.834 197.693 21.1475 197.693 21.5342C197.693 21.7744 197.749 21.9854 197.86 22.167C197.971 22.3428 198.147 22.5156 198.387 22.6855C198.633 22.8496 199.211 23.1484 200.119 23.582C201.32 24.1562 202.143 24.7334 202.589 25.3135C203.034 25.8877 203.256 26.5938 203.256 27.4316ZM220.383 24.4521C220.383 26.5674 219.779 28.1875 218.572 29.3125C217.371 30.4375 215.633 31 213.36 31H209.721V18.1504H213.756C215.853 18.1504 217.482 18.7041 218.642 19.8115C219.802 20.9189 220.383 22.4658 220.383 24.4521ZM217.552 24.5225C217.552 21.7627 216.334 20.3828 213.896 20.3828H212.446V28.75H213.615C216.24 28.75 217.552 27.3408 217.552 24.5225ZM226.634 22.8965C226.066 22.8965 225.62 23.0781 225.298 23.4414C224.976 23.7988 224.791 24.3086 224.744 24.9707H228.506C228.494 24.3086 228.321 23.7988 227.988 23.4414C227.654 23.0781 227.202 22.8965 226.634 22.8965ZM227.012 31.1758C225.43 31.1758 224.194 30.7393 223.303 29.8662C222.412 28.9932 221.967 27.7568 221.967 26.1572C221.967 24.5107 222.377 23.2393 223.197 22.3428C224.024 21.4404 225.163 20.9893 226.616 20.9893C228.005 20.9893 229.086 21.3848 229.86 22.1758C230.633 22.9668 231.02 24.0596 231.02 25.4541V26.7549H224.683C224.712 27.5166 224.938 28.1113 225.36 28.5391C225.781 28.9668 226.373 29.1807 227.135 29.1807C227.727 29.1807 228.286 29.1191 228.814 28.9961C229.341 28.873 229.892 28.6768 230.466 28.4072V30.4814C229.997 30.7158 229.496 30.8887 228.963 31C228.43 31.1172 227.779 31.1758 227.012 31.1758ZM235.61 31H232.929V17.3242H235.61V31ZM238.047 18.6338C238.047 17.7607 238.533 17.3242 239.506 17.3242C240.479 17.3242 240.965 17.7607 240.965 18.6338C240.965 19.0498 240.842 19.375 240.596 19.6094C240.356 19.8379 239.992 19.9521 239.506 19.9521C238.533 19.9521 238.047 19.5127 238.047 18.6338ZM240.842 31H238.161V21.1738H240.842V31ZM245.731 31L241.987 21.1738H244.791L246.689 26.7725C246.9 27.4814 247.032 28.1523 247.085 28.7852H247.137C247.167 28.2227 247.299 27.5518 247.533 26.7725L249.423 21.1738H252.226L248.482 31H245.731ZM257.441 22.8965C256.872 22.8965 256.427 23.0781 256.105 23.4414C255.783 23.7988 255.598 24.3086 255.551 24.9707H259.313C259.301 24.3086 259.128 23.7988 258.794 23.4414C258.46 23.0781 258.009 22.8965 257.441 22.8965ZM257.819 31.1758C256.237 31.1758 255 30.7393 254.11 29.8662C253.219 28.9932 252.774 27.7568 252.774 26.1572C252.774 24.5107 253.184 23.2393 254.004 22.3428C254.83 21.4404 255.97 20.9893 257.423 20.9893C258.812 20.9893 259.893 21.3848 260.666 22.1758C261.44 22.9668 261.826 24.0596 261.826 25.4541V26.7549H255.49C255.519 27.5166 255.744 28.1113 256.166 28.5391C256.588 28.9668 257.18 29.1807 257.942 29.1807C258.533 29.1807 259.093 29.1191 259.62 28.9961C260.148 28.873 260.699 28.6768 261.273 28.4072V30.4814C260.804 30.7158 260.303 30.8887 259.77 31C259.237 31.1172 258.586 31.1758 257.819 31.1758ZM269.221 20.9893C269.584 20.9893 269.886 21.0156 270.126 21.0684L269.924 23.582C269.707 23.5234 269.443 23.4941 269.133 23.4941C268.277 23.4941 267.609 23.7139 267.129 24.1533C266.654 24.5928 266.417 25.208 266.417 25.999V31H263.736V21.1738H265.766L266.162 22.8262H266.294C266.598 22.2754 267.009 21.833 267.524 21.499C268.046 21.1592 268.611 20.9893 269.221 20.9893ZM270.234 21.1738H273.169L275.024 26.7021C275.182 27.1826 275.29 27.751 275.349 28.4072H275.402C275.466 27.8037 275.592 27.2354 275.78 26.7021L277.599 21.1738H280.473L276.316 32.2568C275.935 33.2822 275.39 34.0498 274.681 34.5596C273.978 35.0693 273.155 35.3242 272.211 35.3242C271.748 35.3242 271.294 35.2744 270.849 35.1748V33.0479C271.171 33.124 271.523 33.1621 271.904 33.1621C272.378 33.1621 272.791 33.0156 273.143 32.7227C273.5 32.4355 273.779 31.999 273.978 31.4131L274.136 30.9297L270.234 21.1738Z" fill="white"/>
<path d="M162.936 35.3096C160.757 35.2591 159.032 33.4614 159.082 31.2944C159.133 29.1274 160.941 27.4116 163.119 27.4621C165.298 27.5126 167.023 29.3103 166.973 31.4773C166.922 33.6443 165.114 35.3601 162.936 35.3096Z" stroke="white" stroke-width="2" stroke-miterlimit="10"/>
<path d="M137.631 35.31C135.451 35.31 133.684 33.5528 133.684 31.3852C133.684 29.2176 135.451 27.4604 137.631 27.4604C139.81 27.4604 141.577 29.2176 141.577 31.3852C141.577 33.5528 139.81 35.31 137.631 35.31Z" stroke="white" stroke-width="2" stroke-miterlimit="10"/>
<path d="M155.744 31.3013C155.746 30.3708 155.933 29.4499 156.294 28.5914C156.655 27.733 157.182 26.9538 157.847 26.2986C160.65 23.522 165.197 23.522 168 26.2986" stroke="white" stroke-width="2" stroke-miterlimit="10" stroke-linecap="round" stroke-linejoin="round"/>
<path d="M130.209 31.3011C130.209 27.3734 133.41 24.1904 137.359 24.1904C141.308 24.1904 144.508 27.3741 144.508 31.3018" stroke="white" stroke-width="2" stroke-miterlimit="10" stroke-linecap="round" stroke-linejoin="round"/>
<path d="M145.53 16.0638H132.252V20.1277H145.53V16.0638Z" stroke="white" stroke-width="2" stroke-miterlimit="10" stroke-linecap="round" stroke-linejoin="round"/>
<path d="M163.915 24.1908L157.786 12H153.7" stroke="white" stroke-width="2" stroke-miterlimit="10" stroke-linecap="round" stroke-linejoin="round"/>
<path d="M155.744 31.3853H144.508" stroke="white" stroke-width="2" stroke-miterlimit="10" stroke-linecap="round" stroke-linejoin="round"/>
<path d="M145.53 20.127C145.53 20.127 149.616 35.3652 157.786 20.127" stroke="white" stroke-width="2" stroke-miterlimit="10" stroke-linecap="round" stroke-linejoin="round"/>
<path d="M132.252 20.127C132.252 20.127 129.187 25.2064 130.209 31.3014" stroke="white" stroke-width="2" stroke-miterlimit="10" stroke-linecap="round" stroke-linejoin="round"/>
<rect x="20" y="286" width="374" height="50" rx="10" fill="#DA5C5C"/>
<path d="M117.924 317V304.15H120.649V317H117.924ZM135.013 317H131.55L125.96 307.279H125.881C125.992 308.996 126.048 310.221 126.048 310.953V317H123.613V304.15H127.05L132.631 313.774H132.693C132.605 312.104 132.561 310.924 132.561 310.232V304.15H135.013V317ZM137.986 317V304.15H140.711V317H137.986ZM149.133 306.233C148.108 306.233 147.314 306.62 146.751 307.394C146.189 308.161 145.907 309.233 145.907 310.61C145.907 313.476 146.983 314.908 149.133 314.908C150.035 314.908 151.128 314.683 152.411 314.231V316.517C151.357 316.956 150.179 317.176 148.878 317.176C147.009 317.176 145.579 316.61 144.589 315.479C143.599 314.343 143.104 312.714 143.104 310.593C143.104 309.257 143.347 308.088 143.833 307.086C144.32 306.078 145.017 305.308 145.925 304.774C146.839 304.235 147.908 303.966 149.133 303.966C150.381 303.966 151.635 304.268 152.895 304.871L152.016 307.086C151.535 306.857 151.052 306.658 150.566 306.488C150.079 306.318 149.602 306.233 149.133 306.233ZM154.884 317V304.15H157.608V317H154.884ZM168.439 317L167.507 313.941H162.823L161.891 317H158.955L163.49 304.098H166.822L171.374 317H168.439ZM166.857 311.656C165.995 308.885 165.509 307.317 165.398 306.954C165.292 306.591 165.216 306.304 165.169 306.093C164.976 306.843 164.422 308.697 163.508 311.656H166.857ZM175.455 309.854H176.334C177.195 309.854 177.831 309.711 178.241 309.424C178.651 309.137 178.856 308.686 178.856 308.07C178.856 307.461 178.645 307.027 178.223 306.77C177.807 306.512 177.16 306.383 176.281 306.383H175.455V309.854ZM175.455 312.069V317H172.73V304.15H176.474C178.22 304.15 179.512 304.47 180.35 305.108C181.188 305.741 181.607 306.705 181.607 308C181.607 308.756 181.399 309.43 180.983 310.021C180.567 310.607 179.978 311.067 179.217 311.401C181.15 314.29 182.41 316.156 182.996 317H179.972L176.905 312.069H175.455ZM200.148 317H196.685L191.096 307.279H191.016C191.128 308.996 191.183 310.221 191.183 310.953V317H188.749V304.15H192.185L197.766 313.774H197.828C197.74 312.104 197.696 310.924 197.696 310.232V304.15H200.148V317ZM210.988 317L210.056 313.941H205.371L204.44 317H201.504L206.039 304.098H209.37L213.923 317H210.988ZM209.406 311.656C208.544 308.885 208.058 307.317 207.947 306.954C207.841 306.591 207.765 306.304 207.718 306.093C207.525 306.843 206.971 308.697 206.057 311.656H209.406ZM222.609 304.15H225.36L220.992 317H218.021L213.662 304.15H216.413L218.83 311.797C218.965 312.248 219.102 312.775 219.243 313.379C219.39 313.977 219.48 314.393 219.515 314.627C219.58 314.088 219.8 313.145 220.175 311.797L222.609 304.15ZM234.117 317H226.716V304.15H234.117V306.383H229.441V309.204H233.791V311.437H229.441V314.75H234.117V317ZM241.414 309.784H246.512V316.446C245.685 316.716 244.906 316.903 244.174 317.009C243.447 317.12 242.703 317.176 241.941 317.176C240.002 317.176 238.519 316.607 237.494 315.471C236.475 314.328 235.965 312.69 235.965 310.558C235.965 308.483 236.557 306.866 237.74 305.706C238.93 304.546 240.576 303.966 242.68 303.966C243.998 303.966 245.269 304.229 246.494 304.757L245.589 306.937C244.651 306.468 243.676 306.233 242.662 306.233C241.484 306.233 240.541 306.629 239.832 307.42C239.123 308.211 238.768 309.274 238.768 310.61C238.768 312.005 239.053 313.071 239.621 313.81C240.195 314.542 241.027 314.908 242.117 314.908C242.685 314.908 243.263 314.85 243.849 314.732V312.052H241.414V309.784ZM257.175 317L256.244 313.941H251.559L250.627 317H247.692L252.227 304.098H255.558L260.111 317H257.175ZM255.593 311.656C254.732 308.885 254.246 307.317 254.134 306.954C254.029 306.591 253.953 306.304 253.906 306.093C253.712 306.843 253.159 308.697 252.245 311.656H255.593ZM266.925 306.233C265.899 306.233 265.105 306.62 264.543 307.394C263.98 308.161 263.699 309.233 263.699 310.61C263.699 313.476 264.774 314.908 266.925 314.908C267.827 314.908 268.92 314.683 270.203 314.231V316.517C269.148 316.956 267.971 317.176 266.67 317.176C264.801 317.176 263.371 316.61 262.381 315.479C261.391 314.343 260.895 312.714 260.895 310.593C260.895 309.257 261.139 308.088 261.625 307.086C262.111 306.078 262.809 305.308 263.717 304.774C264.631 304.235 265.7 303.966 266.925 303.966C268.173 303.966 269.427 304.268 270.686 304.871L269.808 307.086C269.327 306.857 268.844 306.658 268.357 306.488C267.871 306.318 267.393 306.233 266.925 306.233ZM268.278 319.197C268.278 319.947 268.056 320.489 267.61 320.823C267.171 321.157 266.488 321.324 265.562 321.324C265.105 321.324 264.678 321.263 264.279 321.14V319.663C264.437 319.704 264.648 319.745 264.912 319.786C265.182 319.827 265.39 319.848 265.536 319.848C265.958 319.848 266.169 319.666 266.169 319.303C266.169 318.816 265.683 318.5 264.71 318.354L265.395 317H267.092L266.854 317.536C267.288 317.677 267.634 317.894 267.892 318.187C268.149 318.485 268.278 318.822 268.278 319.197ZM280.541 317L279.61 313.941H274.925L273.994 317H271.058L275.593 304.098H278.924L283.477 317H280.541ZM278.959 311.656C278.098 308.885 277.612 307.317 277.5 306.954C277.395 306.591 277.319 306.304 277.272 306.093C277.079 306.843 276.525 308.697 275.611 311.656H278.959ZM275.831 302.199C275.649 302.199 275.473 302.278 275.303 302.437C275.139 302.589 275.019 302.823 274.943 303.14H273.633C273.698 302.29 273.938 301.625 274.354 301.145C274.776 300.664 275.332 300.424 276.024 300.424C276.264 300.424 276.498 300.474 276.727 300.573C276.961 300.667 277.19 300.772 277.413 300.89C277.641 301.001 277.864 301.104 278.081 301.197C278.297 301.291 278.511 301.338 278.722 301.338C278.904 301.338 279.077 301.262 279.241 301.109C279.411 300.957 279.534 300.723 279.61 300.406H280.919C280.855 301.256 280.609 301.921 280.181 302.401C279.759 302.882 279.208 303.122 278.529 303.122C278.289 303.122 278.051 303.075 277.817 302.981C277.588 302.882 277.36 302.776 277.131 302.665C276.909 302.548 276.689 302.442 276.472 302.349C276.255 302.249 276.041 302.199 275.831 302.199ZM296.496 310.558C296.496 312.685 295.969 314.319 294.914 315.462C293.859 316.604 292.348 317.176 290.379 317.176C288.41 317.176 286.898 316.604 285.844 315.462C284.789 314.319 284.262 312.679 284.262 310.54C284.262 308.401 284.789 306.77 285.844 305.645C286.904 304.514 288.422 303.948 290.396 303.948C292.371 303.948 293.88 304.517 294.923 305.653C295.972 306.79 296.496 308.425 296.496 310.558ZM287.118 310.558C287.118 311.993 287.391 313.074 287.936 313.801C288.48 314.527 289.295 314.891 290.379 314.891C292.553 314.891 293.64 313.446 293.64 310.558C293.64 307.663 292.559 306.216 290.396 306.216C289.312 306.216 288.495 306.582 287.944 307.314C287.394 308.041 287.118 309.122 287.118 310.558Z" fill="white"/>
<rect x="20" y="454" width="374" height="50" rx="10" fill="#DA5C5C"/>
<path d="M167.642 474.233C166.617 474.233 165.823 474.62 165.26 475.394C164.698 476.161 164.416 477.233 164.416 478.61C164.416 481.476 165.492 482.908 167.642 482.908C168.544 482.908 169.637 482.683 170.92 482.231V484.517C169.866 484.956 168.688 485.176 167.387 485.176C165.518 485.176 164.088 484.61 163.098 483.479C162.108 482.343 161.613 480.714 161.613 478.593C161.613 477.257 161.856 476.088 162.342 475.086C162.829 474.078 163.526 473.308 164.434 472.774C165.348 472.235 166.417 471.966 167.642 471.966C168.89 471.966 170.144 472.268 171.404 472.871L170.525 475.086C170.044 474.857 169.561 474.658 169.075 474.488C168.588 474.318 168.111 474.233 167.642 474.233ZM181.259 485L180.327 481.941H175.643L174.711 485H171.775L176.311 472.098H179.642L184.194 485H181.259ZM179.677 479.656C178.815 476.885 178.329 475.317 178.218 474.954C178.112 474.591 178.036 474.304 177.989 474.093C177.796 474.843 177.242 476.697 176.328 479.656H179.677ZM196.95 485H193.487L187.897 475.279H187.818C187.929 476.996 187.985 478.221 187.985 478.953V485H185.55V472.15H188.987L194.568 481.774H194.629C194.542 480.104 194.498 478.924 194.498 478.232V472.15H196.95V485ZM205.381 474.233C204.356 474.233 203.562 474.62 202.999 475.394C202.437 476.161 202.155 477.233 202.155 478.61C202.155 481.476 203.231 482.908 205.381 482.908C206.283 482.908 207.376 482.683 208.659 482.231V484.517C207.605 484.956 206.427 485.176 205.126 485.176C203.257 485.176 201.827 484.61 200.837 483.479C199.847 482.343 199.352 480.714 199.352 478.593C199.352 477.257 199.595 476.088 200.081 475.086C200.567 474.078 201.265 473.308 202.173 472.774C203.087 472.235 204.156 471.966 205.381 471.966C206.629 471.966 207.883 472.268 209.143 472.871L208.264 475.086C207.783 474.857 207.3 474.658 206.814 474.488C206.327 474.318 205.85 474.233 205.381 474.233ZM218.532 485H211.131V472.15H218.532V474.383H213.856V477.204H218.207V479.437H213.856V482.75H218.532V485ZM220.951 485V472.15H223.676V482.75H228.888V485H220.951ZM238.725 485L237.794 481.941H233.109L232.177 485H229.242L233.777 472.098H237.108L241.661 485H238.725ZM237.143 479.656C236.282 476.885 235.796 475.317 235.684 474.954C235.579 474.591 235.503 474.304 235.456 474.093C235.262 474.843 234.709 476.697 233.795 479.656H237.143ZM245.741 477.854H246.62C247.482 477.854 248.117 477.711 248.527 477.424C248.938 477.137 249.143 476.686 249.143 476.07C249.143 475.461 248.932 475.027 248.51 474.77C248.094 474.512 247.446 474.383 246.568 474.383H245.741V477.854ZM245.741 480.069V485H243.017V472.15H246.761C248.507 472.15 249.799 472.47 250.637 473.108C251.475 473.741 251.894 474.705 251.894 476C251.894 476.756 251.686 477.43 251.27 478.021C250.854 478.607 250.265 479.067 249.503 479.401C251.437 482.29 252.696 484.156 253.282 485H250.259L247.192 480.069H245.741Z" fill="white"/>
<rect x="20" y="370" width="374" height="50" rx="10" fill="#DA5C5C"/>
<path d="M117.793 390.233C116.767 390.233 115.973 390.62 115.411 391.394C114.848 392.161 114.567 393.233 114.567 394.61C114.567 397.476 115.642 398.908 117.793 398.908C118.695 398.908 119.788 398.683 121.071 398.231V400.517C120.016 400.956 118.839 401.176 117.538 401.176C115.669 401.176 114.239 400.61 113.249 399.479C112.258 398.343 111.763 396.714 111.763 394.593C111.763 393.257 112.007 392.088 112.493 391.086C112.979 390.078 113.676 389.308 114.585 388.774C115.499 388.235 116.568 387.966 117.793 387.966C119.041 387.966 120.295 388.268 121.554 388.871L120.675 391.086C120.195 390.857 119.712 390.658 119.225 390.488C118.739 390.318 118.261 390.233 117.793 390.233ZM135.206 394.558C135.206 396.685 134.679 398.319 133.624 399.462C132.57 400.604 131.058 401.176 129.089 401.176C127.12 401.176 125.609 400.604 124.554 399.462C123.499 398.319 122.972 396.679 122.972 394.54C122.972 392.401 123.499 390.77 124.554 389.645C125.614 388.514 127.132 387.948 129.107 387.948C131.081 387.948 132.59 388.517 133.633 389.653C134.682 390.79 135.206 392.425 135.206 394.558ZM125.828 394.558C125.828 395.993 126.101 397.074 126.646 397.801C127.191 398.527 128.005 398.891 129.089 398.891C131.263 398.891 132.35 397.446 132.35 394.558C132.35 391.663 131.269 390.216 129.107 390.216C128.023 390.216 127.205 390.582 126.654 391.314C126.104 392.041 125.828 393.122 125.828 394.558ZM148.999 401H145.536L139.946 391.279H139.867C139.978 392.996 140.034 394.221 140.034 394.953V401H137.599V388.15H141.036L146.617 397.774H146.678C146.591 396.104 146.547 394.924 146.547 394.232V388.15H148.999V401ZM154.653 401H151.972V388.15H159.337V390.383H154.653V393.696H159.012V395.92H154.653V401ZM161.581 401V388.15H164.305V401H161.581ZM169.994 393.854H170.873C171.735 393.854 172.37 393.711 172.781 393.424C173.191 393.137 173.396 392.686 173.396 392.07C173.396 391.461 173.185 391.027 172.763 390.77C172.347 390.512 171.699 390.383 170.821 390.383H169.994V393.854ZM169.994 396.069V401H167.27V388.15H171.014C172.76 388.15 174.052 388.47 174.89 389.108C175.728 389.741 176.147 390.705 176.147 392C176.147 392.756 175.939 393.43 175.523 394.021C175.107 394.607 174.518 395.067 173.756 395.401C175.69 398.29 176.949 400.156 177.535 401H174.512L171.445 396.069H169.994ZM184.323 401L181.229 390.919H181.15C181.262 392.97 181.317 394.338 181.317 395.023V401H178.883V388.15H182.592L185.633 397.977H185.685L188.911 388.15H192.62V401H190.08V394.918C190.08 394.631 190.083 394.3 190.089 393.925C190.1 393.55 190.141 392.554 190.212 390.937H190.133L186.819 401H184.323ZM203.459 401L202.528 397.941H197.843L196.911 401H193.976L198.511 388.098H201.842L206.395 401H203.459ZM201.877 395.656C201.016 392.885 200.53 391.317 200.418 390.954C200.313 390.591 200.237 390.304 200.19 390.093C199.996 390.843 199.443 392.697 198.529 395.656H201.877ZM210.475 393.854H211.354C212.216 393.854 212.851 393.711 213.262 393.424C213.672 393.137 213.877 392.686 213.877 392.07C213.877 391.461 213.666 391.027 213.244 390.77C212.828 390.512 212.18 390.383 211.302 390.383H210.475V393.854ZM210.475 396.069V401H207.751V388.15H211.495C213.241 388.15 214.533 388.47 215.371 389.108C216.209 389.741 216.628 390.705 216.628 392C216.628 392.756 216.42 393.43 216.004 394.021C215.588 394.607 214.999 395.067 214.237 395.401C216.171 398.29 217.43 400.156 218.016 401H214.993L211.926 396.069H210.475ZM231.17 401H223.769V388.15H231.17V390.383H226.494V393.204H230.845V395.437H226.494V398.75H231.17V401ZM244.989 401H241.526L235.936 391.279H235.857C235.968 392.996 236.024 394.221 236.024 394.953V401H233.589V388.15H237.026L242.607 397.774H242.668C242.58 396.104 242.536 394.924 242.536 394.232V388.15H244.989V401ZM252.919 401H250.194V390.418H246.705V388.15H256.408V390.418H252.919V401ZM260.84 393.854H261.719C262.58 393.854 263.216 393.711 263.626 393.424C264.037 393.137 264.242 392.686 264.242 392.07C264.242 391.461 264.031 391.027 263.609 390.77C263.193 390.512 262.545 390.383 261.666 390.383H260.84V393.854ZM260.84 396.069V401H258.116V388.15H261.86C263.606 388.15 264.898 388.47 265.736 389.108C266.574 389.741 266.993 390.705 266.993 392C266.993 392.756 266.785 393.43 266.369 394.021C265.953 394.607 265.364 395.067 264.602 395.401C266.536 398.29 267.795 400.156 268.381 401H265.358L262.29 396.069H260.84ZM277.129 401H269.728V388.15H277.129V390.383H272.453V393.204H276.804V395.437H272.453V398.75H277.129V401ZM284.426 393.784H289.524V400.446C288.698 400.716 287.918 400.903 287.186 401.009C286.459 401.12 285.715 401.176 284.954 401.176C283.014 401.176 281.532 400.607 280.506 399.471C279.487 398.328 278.977 396.69 278.977 394.558C278.977 392.483 279.569 390.866 280.752 389.706C281.942 388.546 283.588 387.966 285.692 387.966C287.01 387.966 288.282 388.229 289.506 388.757L288.601 390.937C287.664 390.468 286.688 390.233 285.674 390.233C284.497 390.233 283.553 390.629 282.844 391.42C282.135 392.211 281.781 393.274 281.781 394.61C281.781 396.005 282.065 397.071 282.633 397.81C283.207 398.542 284.04 398.908 285.129 398.908C285.698 398.908 286.275 398.85 286.861 398.732V396.052H284.426V393.784ZM300.187 401L299.256 397.941H294.571L293.64 401H290.704L295.239 388.098H298.57L303.123 401H300.187ZM298.605 395.656C297.744 392.885 297.258 391.317 297.146 390.954C297.041 390.591 296.965 390.304 296.918 390.093C296.725 390.843 296.171 392.697 295.257 395.656H298.605Z" fill="white"/>
<g filter="url(#filter0_d)">
<rect x="20" y="70" width="374" height="175" rx="10" fill="white"/>
</g>
<path d="M43.9619 130H42.7998V125.297H37.5361V130H36.374V120.006H37.5361V124.258H42.7998V120.006H43.9619V130ZM50.9365 130L50.7109 128.934H50.6562C50.2825 129.403 49.9088 129.722 49.5351 129.891C49.166 130.055 48.7034 130.137 48.1474 130.137C47.4046 130.137 46.8212 129.945 46.3974 129.562C45.9782 129.18 45.7685 128.635 45.7685 127.929C45.7685 126.416 46.9785 125.623 49.3984 125.55L50.6699 125.509V125.044C50.6699 124.456 50.5423 124.023 50.2871 123.745C50.0364 123.463 49.6331 123.321 49.0771 123.321C48.4528 123.321 47.7464 123.513 46.958 123.896L46.6093 123.027C46.9785 122.827 47.3818 122.67 47.8193 122.556C48.2614 122.442 48.7034 122.385 49.1455 122.385C50.0387 122.385 50.6995 122.583 51.1279 122.979C51.5608 123.376 51.7773 124.012 51.7773 124.887V130H50.9365ZM48.373 129.2C49.0794 129.2 49.6331 129.007 50.0341 128.619C50.4397 128.232 50.6425 127.689 50.6425 126.992V126.315L49.5078 126.363C48.6054 126.395 47.9537 126.536 47.5527 126.787C47.1562 127.033 46.958 127.418 46.958 127.942C46.958 128.353 47.081 128.665 47.3271 128.879C47.5778 129.093 47.9264 129.2 48.373 129.2ZM48.1064 121.346C48.3252 121.063 48.5599 120.721 48.8105 120.32C49.0657 119.919 49.2662 119.571 49.4121 119.274H50.7929V119.418C50.5924 119.714 50.2939 120.079 49.8974 120.512C49.5009 120.945 49.1569 121.28 48.8652 121.517H48.1064V121.346ZM63.0126 122.357C63.0126 122.995 62.8326 123.517 62.4725 123.923C62.1171 124.328 61.6112 124.6 60.955 124.736V124.791C61.757 124.891 62.3518 125.146 62.7391 125.557C63.1265 125.967 63.3202 126.505 63.3202 127.17C63.3202 128.122 62.9898 128.856 62.329 129.371C61.6682 129.882 60.7294 130.137 59.5126 130.137C58.9839 130.137 58.4986 130.096 58.0565 130.014C57.619 129.936 57.1929 129.797 56.7782 129.597V128.517C57.2111 128.731 57.6714 128.895 58.1591 129.009C58.6513 129.118 59.1161 129.173 59.5536 129.173C61.2808 129.173 62.1444 128.496 62.1444 127.143C62.1444 125.93 61.1919 125.324 59.287 125.324H58.3026V124.347H59.3007C60.08 124.347 60.6975 124.176 61.1532 123.834C61.6089 123.488 61.8368 123.009 61.8368 122.398C61.8368 121.911 61.6682 121.528 61.3309 121.25C60.9983 120.972 60.5448 120.833 59.9706 120.833C59.5331 120.833 59.1207 120.892 58.7333 121.011C58.3459 121.129 57.9039 121.348 57.4071 121.667L56.8329 120.901C57.243 120.578 57.7147 120.325 58.2479 120.143C58.7857 119.956 59.3508 119.862 59.9432 119.862C60.9139 119.862 61.6682 120.086 62.2059 120.532C62.7437 120.974 63.0126 121.583 63.0126 122.357ZM71.245 124.989C71.245 126.716 70.9715 128.006 70.4246 128.858C69.8823 129.711 69.0506 130.137 67.9295 130.137C66.854 130.137 66.036 129.701 65.4754 128.831C64.9149 127.956 64.6346 126.675 64.6346 124.989C64.6346 123.248 64.9058 121.956 65.4481 121.113C65.9904 120.27 66.8176 119.849 67.9295 119.849C69.0142 119.849 69.8368 120.288 70.3973 121.168C70.9624 122.048 71.245 123.321 71.245 124.989ZM65.783 124.989C65.783 126.443 65.9539 127.503 66.2957 128.168C66.6375 128.829 67.1821 129.159 67.9295 129.159C68.686 129.159 69.2329 128.824 69.5702 128.154C69.912 127.48 70.0829 126.425 70.0829 124.989C70.0829 123.554 69.912 122.503 69.5702 121.838C69.2329 121.168 68.686 120.833 67.9295 120.833C67.1821 120.833 66.6375 121.163 66.2957 121.824C65.9539 122.48 65.783 123.535 65.783 124.989ZM85.9187 130V125.126C85.9187 124.529 85.7911 124.082 85.5359 123.786C85.2807 123.485 84.8842 123.335 84.3464 123.335C83.6401 123.335 83.1183 123.538 82.781 123.943C82.4438 124.349 82.2752 124.973 82.2752 125.816V130H81.1404V125.126C81.1404 124.529 81.0128 124.082 80.7576 123.786C80.5024 123.485 80.1036 123.335 79.5613 123.335C78.8504 123.335 78.3285 123.549 77.9959 123.978C77.6677 124.401 77.5037 125.099 77.5037 126.069V130H76.3689V122.508H77.2918L77.4763 123.533H77.531C77.7452 123.169 78.046 122.884 78.4334 122.679C78.8253 122.474 79.2628 122.371 79.7459 122.371C80.9171 122.371 81.6827 122.795 82.0427 123.643H82.0974C82.3207 123.251 82.6443 122.941 83.0681 122.713C83.492 122.485 83.975 122.371 84.5173 122.371C85.365 122.371 85.9985 122.59 86.4177 123.027C86.8416 123.46 87.0535 124.155 87.0535 125.112V130H85.9187ZM90.323 130H89.1882V122.508H90.323V130ZM89.0925 120.478C89.0925 120.218 89.1563 120.029 89.2839 119.91C89.4115 119.787 89.571 119.726 89.7624 119.726C89.9447 119.726 90.1019 119.787 90.2341 119.91C90.3663 120.033 90.4323 120.222 90.4323 120.478C90.4323 120.733 90.3663 120.924 90.2341 121.052C90.1019 121.175 89.9447 121.236 89.7624 121.236C89.571 121.236 89.4115 121.175 89.2839 121.052C89.1563 120.924 89.0925 120.733 89.0925 120.478ZM97.6462 130V125.153C97.6462 124.543 97.5072 124.087 97.2292 123.786C96.9512 123.485 96.516 123.335 95.9235 123.335C95.1397 123.335 94.5654 123.547 94.2009 123.971C93.8363 124.395 93.654 125.094 93.654 126.069V130H92.5192V122.508H93.4421L93.6266 123.533H93.6813C93.9137 123.164 94.2396 122.879 94.6589 122.679C95.0781 122.474 95.5453 122.371 96.0602 122.371C96.9626 122.371 97.6416 122.59 98.0973 123.027C98.5531 123.46 98.7809 124.155 98.7809 125.112V130H97.6462ZM100.745 129.275C100.745 128.97 100.813 128.74 100.95 128.585C101.091 128.425 101.292 128.346 101.551 128.346C101.816 128.346 102.021 128.425 102.167 128.585C102.317 128.74 102.392 128.97 102.392 129.275C102.392 129.572 102.317 129.799 102.167 129.959C102.016 130.118 101.811 130.198 101.551 130.198C101.319 130.198 101.125 130.128 100.97 129.986C100.82 129.84 100.745 129.604 100.745 129.275Z" fill="#9E9E9E"/>
<path d="M42.7109 171.918C42.7109 172.93 42.3646 173.709 41.6719 174.256C40.9837 174.798 39.9971 175.069 38.7119 175.069H37.5361V179H36.374V169.006H38.9648C41.4622 169.006 42.7109 169.977 42.7109 171.918ZM37.5361 174.071H38.582C39.612 174.071 40.3571 173.905 40.8174 173.572C41.2777 173.24 41.5078 172.706 41.5078 171.973C41.5078 171.312 41.2913 170.82 40.8584 170.496C40.4255 170.173 39.751 170.011 38.835 170.011H37.5361V174.071ZM45.5634 179H44.4287V171.508H45.5634V179ZM44.333 169.478C44.333 169.218 44.3968 169.029 44.5244 168.91C44.652 168.787 44.8115 168.726 45.0029 168.726C45.1852 168.726 45.3424 168.787 45.4746 168.91C45.6067 169.033 45.6728 169.222 45.6728 169.478C45.6728 169.733 45.6067 169.924 45.4746 170.052C45.3424 170.175 45.1852 170.236 45.0029 170.236C44.8115 170.236 44.652 170.175 44.5244 170.052C44.3968 169.924 44.333 169.733 44.333 169.478ZM52.5517 179H47.1171V178.228L51.205 172.39H47.37V171.508H52.4491V172.39L48.4159 178.118H52.5517V179ZM58.8905 179H53.4559V178.228L57.5438 172.39H53.7089V171.508H58.788V172.39L54.7548 178.118H58.8905V179ZM65.0448 179L64.8192 177.934H64.7645C64.3908 178.403 64.0171 178.722 63.6434 178.891C63.2743 179.055 62.8117 179.137 62.2557 179.137C61.5129 179.137 60.9295 178.945 60.5057 178.562C60.0864 178.18 59.8768 177.635 59.8768 176.929C59.8768 175.416 61.0868 174.623 63.5067 174.55L64.7782 174.509V174.044C64.7782 173.456 64.6506 173.023 64.3954 172.745C64.1447 172.463 63.7414 172.321 63.1854 172.321C62.561 172.321 61.8547 172.513 61.0662 172.896L60.7176 172.027C61.0868 171.827 61.4901 171.67 61.9276 171.556C62.3696 171.442 62.8117 171.385 63.2537 171.385C64.147 171.385 64.8078 171.583 65.2362 171.979C65.6691 172.376 65.8856 173.012 65.8856 173.887V179H65.0448ZM62.4813 178.2C63.1877 178.2 63.7414 178.007 64.1424 177.619C64.548 177.232 64.7508 176.689 64.7508 175.992V175.315L63.6161 175.363C62.7137 175.395 62.062 175.536 61.661 175.787C61.2645 176.033 61.0662 176.418 61.0662 176.942C61.0662 177.353 61.1893 177.665 61.4354 177.879C61.686 178.093 62.0347 178.2 62.4813 178.2ZM75.8972 169.901C74.7989 169.901 73.9308 170.268 73.2927 171.002C72.6593 171.731 72.3425 172.731 72.3425 174.003C72.3425 175.311 72.6479 176.323 73.2586 177.038C73.8738 177.749 74.7488 178.104 75.8836 178.104C76.5808 178.104 77.3761 177.979 78.2693 177.729V178.747C77.5766 179.007 76.7221 179.137 75.7058 179.137C74.2338 179.137 73.0968 178.69 72.2947 177.797C71.4972 176.904 71.0984 175.634 71.0984 173.989C71.0984 172.959 71.2898 172.057 71.6726 171.282C72.06 170.507 72.616 169.91 73.3406 169.491C74.0698 169.072 74.9265 168.862 75.9109 168.862C76.9591 168.862 77.8751 169.054 78.6589 169.437L78.1668 170.435C77.4102 170.079 76.6537 169.901 75.8972 169.901ZM84.6765 179L84.4509 177.934H84.3962C84.0225 178.403 83.6488 178.722 83.2751 178.891C82.906 179.055 82.4434 179.137 81.8874 179.137C81.1446 179.137 80.5612 178.945 80.1374 178.562C79.7181 178.18 79.5085 177.635 79.5085 176.929C79.5085 175.416 80.7185 174.623 83.1384 174.55L84.4099 174.509V174.044C84.4099 173.456 84.2823 173.023 84.0271 172.745C83.7764 172.463 83.3731 172.321 82.8171 172.321C82.1928 172.321 81.4864 172.513 80.698 172.896L80.3493 172.027C80.7185 171.827 81.1218 171.67 81.5593 171.556C82.0014 171.442 82.4434 171.385 82.8855 171.385C83.7787 171.385 84.4395 171.583 84.8679 171.979C85.3008 172.376 85.5173 173.012 85.5173 173.887V179H84.6765ZM82.113 178.2C82.8194 178.2 83.3731 178.007 83.7741 177.619C84.1797 177.232 84.3825 176.689 84.3825 175.992V175.315L83.2478 175.363C82.3454 175.395 81.6937 175.536 81.2927 175.787C80.8962 176.033 80.698 176.418 80.698 176.942C80.698 177.353 80.821 177.665 81.0671 177.879C81.3178 178.093 81.6664 178.2 82.113 178.2ZM88.7868 179H87.652V168.363H88.7868V179ZM95.5905 179L95.3649 177.934H95.3102C94.9365 178.403 94.5628 178.722 94.1891 178.891C93.82 179.055 93.3574 179.137 92.8014 179.137C92.0586 179.137 91.4752 178.945 91.0514 178.562C90.6321 178.18 90.4225 177.635 90.4225 176.929C90.4225 175.416 91.6325 174.623 94.0524 174.55L95.3239 174.509V174.044C95.3239 173.456 95.1963 173.023 94.9411 172.745C94.6904 172.463 94.2871 172.321 93.7311 172.321C93.1067 172.321 92.4004 172.513 91.612 172.896L91.2633 172.027C91.6325 171.827 92.0358 171.67 92.4733 171.556C92.9153 171.442 93.3574 171.385 93.7995 171.385C94.6927 171.385 95.3535 171.583 95.7819 171.979C96.2148 172.376 96.4313 173.012 96.4313 173.887V179H95.5905ZM93.027 178.2C93.7334 178.2 94.2871 178.007 94.6881 177.619C95.0937 177.232 95.2965 176.689 95.2965 175.992V175.315L94.1618 175.363C93.2594 175.395 92.6077 175.536 92.2067 175.787C91.8102 176.033 91.612 176.418 91.612 176.942C91.612 177.353 91.735 177.665 91.9811 177.879C92.2317 178.093 92.5804 178.2 93.027 178.2ZM102.052 171.385C103.037 171.385 103.8 171.722 104.342 172.396C104.889 173.066 105.163 174.017 105.163 175.247C105.163 176.478 104.887 177.435 104.336 178.118C103.789 178.797 103.028 179.137 102.052 179.137C101.565 179.137 101.118 179.048 100.713 178.87C100.311 178.688 99.9742 178.41 99.7008 178.036H99.6188L99.3795 179H98.566V168.363H99.7008V170.947C99.7008 171.526 99.6826 172.046 99.6461 172.506H99.7008C100.229 171.758 101.013 171.385 102.052 171.385ZM101.888 172.335C101.114 172.335 100.555 172.558 100.213 173.005C99.8717 173.447 99.7008 174.194 99.7008 175.247C99.7008 176.3 99.8762 177.054 100.227 177.51C100.578 177.961 101.141 178.187 101.916 178.187C102.613 178.187 103.132 177.934 103.474 177.428C103.816 176.917 103.987 176.186 103.987 175.233C103.987 174.258 103.816 173.531 103.474 173.053C103.132 172.574 102.604 172.335 101.888 172.335ZM110.36 171.371C110.693 171.371 110.991 171.398 111.255 171.453L111.098 172.506C110.788 172.438 110.515 172.403 110.278 172.403C109.672 172.403 109.152 172.649 108.719 173.142C108.291 173.634 108.077 174.247 108.077 174.98V179H106.942V171.508H107.878L108.008 172.896H108.063C108.341 172.408 108.676 172.032 109.068 171.768C109.46 171.503 109.891 171.371 110.36 171.371ZM115.612 179.137C114.504 179.137 113.629 178.799 112.987 178.125C112.349 177.451 112.03 176.514 112.03 175.315C112.03 174.108 112.326 173.148 112.918 172.438C113.515 171.727 114.315 171.371 115.318 171.371C116.257 171.371 117 171.681 117.546 172.301C118.093 172.916 118.367 173.729 118.367 174.741V175.459H113.206C113.228 176.339 113.449 177.006 113.869 177.462C114.293 177.918 114.887 178.146 115.653 178.146C116.459 178.146 117.257 177.977 118.045 177.64V178.651C117.644 178.825 117.264 178.948 116.904 179.021C116.548 179.098 116.118 179.137 115.612 179.137ZM115.304 172.321C114.703 172.321 114.222 172.517 113.862 172.909C113.506 173.301 113.297 173.843 113.233 174.536H117.15C117.15 173.821 116.99 173.274 116.671 172.896C116.352 172.513 115.897 172.321 115.304 172.321ZM124.931 176.956C124.931 177.653 124.671 178.191 124.152 178.569C123.632 178.948 122.903 179.137 121.964 179.137C120.971 179.137 120.196 178.979 119.64 178.665V177.612C120 177.795 120.385 177.938 120.795 178.043C121.21 178.148 121.609 178.2 121.992 178.2C122.584 178.2 123.04 178.107 123.359 177.92C123.678 177.729 123.837 177.439 123.837 177.052C123.837 176.76 123.71 176.512 123.455 176.307C123.204 176.097 122.712 175.851 121.978 175.568C121.281 175.309 120.784 175.083 120.488 174.892C120.196 174.696 119.977 174.475 119.832 174.229C119.69 173.982 119.62 173.688 119.62 173.347C119.62 172.736 119.868 172.255 120.365 171.904C120.861 171.549 121.543 171.371 122.409 171.371C123.215 171.371 124.004 171.535 124.774 171.863L124.371 172.786C123.619 172.476 122.937 172.321 122.327 172.321C121.789 172.321 121.383 172.406 121.11 172.574C120.836 172.743 120.7 172.975 120.7 173.271C120.7 173.472 120.75 173.643 120.85 173.784C120.955 173.925 121.121 174.06 121.349 174.188C121.577 174.315 122.014 174.5 122.662 174.741C123.55 175.065 124.15 175.391 124.459 175.719C124.774 176.047 124.931 176.459 124.931 176.956ZM131.181 179L130.956 177.934H130.901C130.527 178.403 130.153 178.722 129.78 178.891C129.411 179.055 128.948 179.137 128.392 179.137C127.649 179.137 127.066 178.945 126.642 178.562C126.223 178.18 126.013 177.635 126.013 176.929C126.013 175.416 127.223 174.623 129.643 174.55L130.914 174.509V174.044C130.914 173.456 130.787 173.023 130.532 172.745C130.281 172.463 129.878 172.321 129.322 172.321C128.697 172.321 127.991 172.513 127.203 172.896L126.854 172.027C127.223 171.827 127.626 171.67 128.064 171.556C128.506 171.442 128.948 171.385 129.39 171.385C130.283 171.385 130.944 171.583 131.372 171.979C131.805 172.376 132.022 173.012 132.022 173.887V179H131.181ZM128.618 178.2C129.324 178.2 129.878 178.007 130.279 177.619C130.684 177.232 130.887 176.689 130.887 175.992V175.315L129.752 175.363C128.85 175.395 128.198 175.536 127.797 175.787C127.401 176.033 127.203 176.418 127.203 176.942C127.203 177.353 127.326 177.665 127.572 177.879C127.822 178.093 128.171 178.2 128.618 178.2ZM42.7109 190.918C42.7109 191.93 42.3646 192.709 41.6719 193.256C40.9837 193.798 39.9971 194.069 38.7119 194.069H37.5361V198H36.374V188.006H38.9648C41.4622 188.006 42.7109 188.977 42.7109 190.918ZM37.5361 193.071H38.582C39.612 193.071 40.3571 192.905 40.8174 192.572C41.2777 192.24 41.5078 191.706 41.5078 190.973C41.5078 190.312 41.2913 189.82 40.8584 189.496C40.4255 189.173 39.751 189.011 38.835 189.011H37.5361V193.071ZM45.5634 198H44.4287V190.508H45.5634V198ZM44.333 188.478C44.333 188.218 44.3968 188.029 44.5244 187.91C44.652 187.787 44.8115 187.726 45.0029 187.726C45.1852 187.726 45.3424 187.787 45.4746 187.91C45.6067 188.033 45.6728 188.222 45.6728 188.478C45.6728 188.733 45.6067 188.924 45.4746 189.052C45.3424 189.175 45.1852 189.236 45.0029 189.236C44.8115 189.236 44.652 189.175 44.5244 189.052C44.3968 188.924 44.333 188.733 44.333 188.478ZM52.5517 198H47.1171V197.228L51.205 191.39H47.37V190.508H52.4491V191.39L48.4159 197.118H52.5517V198ZM58.8905 198H53.4559V197.228L57.5438 191.39H53.7089V190.508H58.788V191.39L54.7548 197.118H58.8905V198ZM65.0448 198L64.8192 196.934H64.7645C64.3908 197.403 64.0171 197.722 63.6434 197.891C63.2743 198.055 62.8117 198.137 62.2557 198.137C61.5129 198.137 60.9295 197.945 60.5057 197.562C60.0864 197.18 59.8768 196.635 59.8768 195.929C59.8768 194.416 61.0868 193.623 63.5067 193.55L64.7782 193.509V193.044C64.7782 192.456 64.6506 192.023 64.3954 191.745C64.1447 191.463 63.7414 191.321 63.1854 191.321C62.561 191.321 61.8547 191.513 61.0662 191.896L60.7176 191.027C61.0868 190.827 61.4901 190.67 61.9276 190.556C62.3696 190.442 62.8117 190.385 63.2537 190.385C64.147 190.385 64.8078 190.583 65.2362 190.979C65.6691 191.376 65.8856 192.012 65.8856 192.887V198H65.0448ZM62.4813 197.2C63.1877 197.2 63.7414 197.007 64.1424 196.619C64.548 196.232 64.7508 195.689 64.7508 194.992V194.315L63.6161 194.363C62.7137 194.395 62.062 194.536 61.661 194.787C61.2645 195.033 61.0662 195.418 61.0662 195.942C61.0662 196.353 61.1893 196.665 61.4354 196.879C61.686 197.093 62.0347 197.2 62.4813 197.2ZM80.2927 192.989C80.2927 194.27 80.0352 195.334 79.5203 196.182C79.0053 197.029 78.2784 197.604 77.3396 197.904L79.7185 200.379H78.03L76.0818 198.123L75.7058 198.137C74.2338 198.137 73.0968 197.688 72.2947 196.79C71.4972 195.888 71.0984 194.616 71.0984 192.976C71.0984 191.349 71.4994 190.089 72.3015 189.195C73.1036 188.298 74.2429 187.849 75.7195 187.849C77.155 187.849 78.2761 188.304 79.0828 189.216C79.8894 190.127 80.2927 191.385 80.2927 192.989ZM72.3289 192.989C72.3289 194.343 72.616 195.37 73.1902 196.072C73.769 196.77 74.6075 197.118 75.7058 197.118C76.8132 197.118 77.6495 196.77 78.2146 196.072C78.7797 195.375 79.0623 194.347 79.0623 192.989C79.0623 191.645 78.7797 190.626 78.2146 189.934C77.6541 189.236 76.8224 188.888 75.7195 188.888C74.6121 188.888 73.769 189.239 73.1902 189.94C72.616 190.638 72.3289 191.654 72.3289 192.989ZM83.2136 190.508V195.368C83.2136 195.979 83.3526 196.435 83.6306 196.735C83.9086 197.036 84.3438 197.187 84.9362 197.187C85.7201 197.187 86.292 196.972 86.6521 196.544C87.0167 196.116 87.1989 195.416 87.1989 194.445V190.508H88.3337V198H87.3972L87.2331 196.995H87.1716C86.9392 197.364 86.6156 197.647 86.2009 197.843C85.7907 198.039 85.3213 198.137 84.7927 198.137C83.8812 198.137 83.1976 197.92 82.7419 197.487C82.2907 197.054 82.0652 196.362 82.0652 195.409V190.508H83.2136ZM95.1442 198L94.9186 196.934H94.8639C94.4902 197.403 94.1165 197.722 93.7429 197.891C93.3737 198.055 92.9111 198.137 92.3552 198.137C91.6123 198.137 91.029 197.945 90.6052 197.562C90.1859 197.18 89.9762 196.635 89.9762 195.929C89.9762 194.416 91.1862 193.623 93.6061 193.55L94.8776 193.509V193.044C94.8776 192.456 94.75 192.023 94.4948 191.745C94.2442 191.463 93.8408 191.321 93.2848 191.321C92.6605 191.321 91.9541 191.513 91.1657 191.896L90.8171 191.027C91.1862 190.827 91.5895 190.67 92.027 190.556C92.4691 190.442 92.9111 190.385 93.3532 190.385C94.2464 190.385 94.9072 190.583 95.3356 190.979C95.7686 191.376 95.985 192.012 95.985 192.887V198H95.1442ZM92.5807 197.2C93.2871 197.2 93.8408 197.007 94.2419 196.619C94.6475 196.232 94.8503 195.689 94.8503 194.992V194.315L93.7155 194.363C92.8132 194.395 92.1615 194.536 91.7604 194.787C91.3639 195.033 91.1657 195.418 91.1657 195.942C91.1657 196.353 91.2887 196.665 91.5348 196.879C91.7855 197.093 92.1341 197.2 92.5807 197.2ZM100.54 197.2C100.74 197.2 100.934 197.187 101.121 197.159C101.308 197.127 101.456 197.095 101.565 197.063V197.932C101.442 197.991 101.26 198.039 101.018 198.075C100.781 198.116 100.567 198.137 100.376 198.137C98.9264 198.137 98.2018 197.373 98.2018 195.847V191.39H97.1286V190.843L98.2018 190.371L98.6803 188.771H99.3366V190.508H101.51V191.39H99.3366V195.799C99.3366 196.25 99.4437 196.596 99.6579 196.838C99.872 197.079 100.166 197.2 100.54 197.2ZM106.277 190.371C106.61 190.371 106.908 190.398 107.172 190.453L107.015 191.506C106.705 191.438 106.432 191.403 106.195 191.403C105.589 191.403 105.069 191.649 104.636 192.142C104.208 192.634 103.994 193.247 103.994 193.98V198H102.859V190.508H103.796L103.925 191.896H103.98C104.258 191.408 104.593 191.032 104.985 190.768C105.377 190.503 105.808 190.371 106.277 190.371ZM114.831 194.247C114.831 195.468 114.523 196.423 113.908 197.111C113.293 197.795 112.443 198.137 111.358 198.137C110.688 198.137 110.093 197.979 109.574 197.665C109.054 197.351 108.653 196.899 108.371 196.312C108.088 195.724 107.947 195.035 107.947 194.247C107.947 193.026 108.252 192.076 108.863 191.396C109.474 190.713 110.321 190.371 111.406 190.371C112.454 190.371 113.286 190.72 113.901 191.417C114.521 192.114 114.831 193.058 114.831 194.247ZM109.123 194.247C109.123 195.204 109.314 195.933 109.697 196.435C110.08 196.936 110.642 197.187 111.385 197.187C112.128 197.187 112.691 196.938 113.074 196.441C113.461 195.94 113.655 195.209 113.655 194.247C113.655 193.295 113.461 192.572 113.074 192.08C112.691 191.583 112.124 191.335 111.372 191.335C110.629 191.335 110.068 191.579 109.69 192.066C109.312 192.554 109.123 193.281 109.123 194.247ZM128.889 192.989C128.889 194.27 128.632 195.334 128.117 196.182C127.602 197.029 126.875 197.604 125.936 197.904L128.315 200.379H126.626L124.678 198.123L124.302 198.137C122.83 198.137 121.693 197.688 120.891 196.79C120.094 195.888 119.695 194.616 119.695 192.976C119.695 191.349 120.096 190.089 120.898 189.195C121.7 188.298 122.839 187.849 124.316 187.849C125.751 187.849 126.873 188.304 127.679 189.216C128.486 190.127 128.889 191.385 128.889 192.989ZM120.925 192.989C120.925 194.343 121.212 195.37 121.787 196.072C122.365 196.77 123.204 197.118 124.302 197.118C125.41 197.118 126.246 196.77 126.811 196.072C127.376 195.375 127.659 194.347 127.659 192.989C127.659 191.645 127.376 190.626 126.811 189.934C126.25 189.236 125.419 188.888 124.316 188.888C123.208 188.888 122.365 189.239 121.787 189.94C121.212 190.638 120.925 191.654 120.925 192.989ZM131.81 190.508V195.368C131.81 195.979 131.949 196.435 132.227 196.735C132.505 197.036 132.94 197.187 133.533 197.187C134.317 197.187 134.888 196.972 135.248 196.544C135.613 196.116 135.795 195.416 135.795 194.445V190.508H136.93V198H135.994L135.83 196.995H135.768C135.536 197.364 135.212 197.647 134.797 197.843C134.387 198.039 133.918 198.137 133.389 198.137C132.478 198.137 131.794 197.92 131.338 197.487C130.887 197.054 130.662 196.362 130.662 195.409V190.508H131.81ZM142.298 198.137C141.191 198.137 140.316 197.799 139.673 197.125C139.035 196.451 138.716 195.514 138.716 194.315C138.716 193.108 139.012 192.148 139.605 191.438C140.202 190.727 141.002 190.371 142.004 190.371C142.943 190.371 143.686 190.681 144.233 191.301C144.78 191.916 145.053 192.729 145.053 193.741V194.459H139.892C139.915 195.339 140.136 196.006 140.555 196.462C140.979 196.918 141.574 197.146 142.339 197.146C143.146 197.146 143.943 196.977 144.732 196.64V197.651C144.331 197.825 143.95 197.948 143.59 198.021C143.235 198.098 142.804 198.137 142.298 198.137ZM141.991 191.321C141.389 191.321 140.908 191.517 140.548 191.909C140.193 192.301 139.983 192.843 139.919 193.536H143.836C143.836 192.821 143.677 192.274 143.358 191.896C143.039 191.513 142.583 191.321 141.991 191.321ZM147.919 198H146.785V190.508H147.919V198ZM146.689 188.478C146.689 188.218 146.753 188.029 146.88 187.91C147.008 187.787 147.167 187.726 147.359 187.726C147.541 187.726 147.698 187.787 147.83 187.91C147.963 188.033 148.029 188.222 148.029 188.478C148.029 188.733 147.963 188.924 147.83 189.052C147.698 189.175 147.541 189.236 147.359 189.236C147.167 189.236 147.008 189.175 146.88 189.052C146.753 188.924 146.689 188.733 146.689 188.478ZM149.206 201.363C148.773 201.363 148.423 201.306 148.154 201.192V200.27C148.468 200.361 148.778 200.406 149.083 200.406C149.439 200.406 149.699 200.308 149.863 200.112C150.031 199.921 150.116 199.627 150.116 199.23V190.508H151.25V199.148C151.25 200.625 150.569 201.363 149.206 201.363ZM150.02 188.478C150.02 188.218 150.084 188.029 150.211 187.91C150.339 187.787 150.498 187.726 150.69 187.726C150.872 187.726 151.029 187.787 151.161 187.91C151.294 188.033 151.36 188.222 151.36 188.478C151.36 188.733 151.294 188.924 151.161 189.052C151.029 189.175 150.872 189.236 150.69 189.236C150.498 189.236 150.339 189.175 150.211 189.052C150.084 188.924 150.02 188.733 150.02 188.478ZM159.913 194.247C159.913 195.468 159.606 196.423 158.991 197.111C158.375 197.795 157.525 198.137 156.441 198.137C155.771 198.137 155.176 197.979 154.657 197.665C154.137 197.351 153.736 196.899 153.453 196.312C153.171 195.724 153.03 195.035 153.03 194.247C153.03 193.026 153.335 192.076 153.946 191.396C154.556 190.713 155.404 190.371 156.489 190.371C157.537 190.371 158.368 190.72 158.984 191.417C159.603 192.114 159.913 193.058 159.913 194.247ZM154.205 194.247C154.205 195.204 154.397 195.933 154.78 196.435C155.162 196.936 155.725 197.187 156.468 197.187C157.211 197.187 157.774 196.938 158.157 196.441C158.544 195.94 158.738 195.209 158.738 194.247C158.738 193.295 158.544 192.572 158.157 192.08C157.774 191.583 157.206 191.335 156.454 191.335C155.712 191.335 155.151 191.579 154.773 192.066C154.394 192.554 154.205 193.281 154.205 194.247ZM166.532 195.956C166.532 196.653 166.273 197.191 165.753 197.569C165.234 197.948 164.504 198.137 163.566 198.137C162.572 198.137 161.797 197.979 161.241 197.665V196.612C161.601 196.795 161.987 196.938 162.397 197.043C162.811 197.148 163.21 197.2 163.593 197.2C164.185 197.2 164.641 197.107 164.96 196.92C165.279 196.729 165.439 196.439 165.439 196.052C165.439 195.76 165.311 195.512 165.056 195.307C164.805 195.097 164.313 194.851 163.579 194.568C162.882 194.309 162.385 194.083 162.089 193.892C161.797 193.696 161.579 193.475 161.433 193.229C161.292 192.982 161.221 192.688 161.221 192.347C161.221 191.736 161.469 191.255 161.966 190.904C162.463 190.549 163.144 190.371 164.01 190.371C164.817 190.371 165.605 190.535 166.375 190.863L165.972 191.786C165.22 191.476 164.539 191.321 163.928 191.321C163.39 191.321 162.985 191.406 162.711 191.574C162.438 191.743 162.301 191.975 162.301 192.271C162.301 192.472 162.351 192.643 162.451 192.784C162.556 192.925 162.723 193.06 162.95 193.188C163.178 193.315 163.616 193.5 164.263 193.741C165.152 194.065 165.751 194.391 166.061 194.719C166.375 195.047 166.532 195.459 166.532 195.956ZM42.7109 209.918C42.7109 210.93 42.3646 211.709 41.6719 212.256C40.9837 212.798 39.9971 213.069 38.7119 213.069H37.5361V217H36.374V207.006H38.9648C41.4622 207.006 42.7109 207.977 42.7109 209.918ZM37.5361 212.071H38.582C39.612 212.071 40.3571 211.905 40.8174 211.572C41.2777 211.24 41.5078 210.706 41.5078 209.973C41.5078 209.312 41.2913 208.82 40.8584 208.496C40.4255 208.173 39.751 208.011 38.835 208.011H37.5361V212.071ZM45.5634 217H44.4287V209.508H45.5634V217ZM44.333 207.478C44.333 207.218 44.3968 207.029 44.5244 206.91C44.652 206.787 44.8115 206.726 45.0029 206.726C45.1852 206.726 45.3424 206.787 45.4746 206.91C45.6067 207.033 45.6728 207.222 45.6728 207.478C45.6728 207.733 45.6067 207.924 45.4746 208.052C45.3424 208.175 45.1852 208.236 45.0029 208.236C44.8115 208.236 44.652 208.175 44.5244 208.052C44.3968 207.924 44.333 207.733 44.333 207.478ZM52.5517 217H47.1171V216.228L51.205 210.39H47.37V209.508H52.4491V210.39L48.4159 216.118H52.5517V217ZM58.8905 217H53.4559V216.228L57.5438 210.39H53.7089V209.508H58.788V210.39L54.7548 216.118H58.8905V217ZM65.0448 217L64.8192 215.934H64.7645C64.3908 216.403 64.0171 216.722 63.6434 216.891C63.2743 217.055 62.8117 217.137 62.2557 217.137C61.5129 217.137 60.9295 216.945 60.5057 216.562C60.0864 216.18 59.8768 215.635 59.8768 214.929C59.8768 213.416 61.0868 212.623 63.5067 212.55L64.7782 212.509V212.044C64.7782 211.456 64.6506 211.023 64.3954 210.745C64.1447 210.463 63.7414 210.321 63.1854 210.321C62.561 210.321 61.8547 210.513 61.0662 210.896L60.7176 210.027C61.0868 209.827 61.4901 209.67 61.9276 209.556C62.3696 209.442 62.8117 209.385 63.2537 209.385C64.147 209.385 64.8078 209.583 65.2362 209.979C65.6691 210.376 65.8856 211.012 65.8856 211.887V217H65.0448ZM62.4813 216.2C63.1877 216.2 63.7414 216.007 64.1424 215.619C64.548 215.232 64.7508 214.689 64.7508 213.992V213.315L63.6161 213.363C62.7137 213.395 62.062 213.536 61.661 213.787C61.2645 214.033 61.0662 214.418 61.0662 214.942C61.0662 215.353 61.1893 215.665 61.4354 215.879C61.686 216.093 62.0347 216.2 62.4813 216.2ZM76.0408 217L72.6502 208.141H72.5955C72.6593 208.842 72.6912 209.676 72.6912 210.643V217H71.6179V207.006H73.3679L76.533 215.25H76.5877L79.78 207.006H81.5164V217H80.3543V210.561C80.3543 209.822 80.3862 209.02 80.45 208.154H80.3953L76.9773 217H76.0408ZM88.4909 217L88.2654 215.934H88.2107C87.837 216.403 87.4633 216.722 87.0896 216.891C86.7204 217.055 86.2579 217.137 85.7019 217.137C84.959 217.137 84.3757 216.945 83.9519 216.562C83.5326 216.18 83.323 215.635 83.323 214.929C83.323 213.416 84.5329 212.623 86.9529 212.55L88.2243 212.509V212.044C88.2243 211.456 88.0967 211.023 87.8415 210.745C87.5909 210.463 87.1876 210.321 86.6316 210.321C86.0072 210.321 85.3008 210.513 84.5124 210.896L84.1638 210.027C84.5329 209.827 84.9362 209.67 85.3737 209.556C85.8158 209.442 86.2579 209.385 86.6999 209.385C87.5931 209.385 88.254 209.583 88.6823 209.979C89.1153 210.376 89.3318 211.012 89.3318 211.887V217H88.4909ZM85.9275 216.2C86.6338 216.2 87.1876 216.007 87.5886 215.619C87.9942 215.232 88.197 214.689 88.197 213.992V213.315L87.0622 213.363C86.1599 213.395 85.5082 213.536 85.1071 213.787C84.7107 214.033 84.5124 214.418 84.5124 214.942C84.5124 215.353 84.6355 215.665 84.8816 215.879C85.1322 216.093 85.4808 216.2 85.9275 216.2ZM94.8845 209.371C95.2171 209.371 95.5156 209.398 95.78 209.453L95.6227 210.506C95.3128 210.438 95.0394 210.403 94.8024 210.403C94.1963 210.403 93.6768 210.649 93.2438 211.142C92.8154 211.634 92.6012 212.247 92.6012 212.98V217H91.4665V209.508H92.403L92.5329 210.896H92.5876C92.8656 210.408 93.2005 210.032 93.5925 209.768C93.9844 209.503 94.4151 209.371 94.8845 209.371ZM103.103 209.508V210.226L101.715 210.39C101.843 210.549 101.957 210.759 102.057 211.019C102.158 211.274 102.208 211.563 102.208 211.887C102.208 212.62 101.957 213.206 101.456 213.644C100.954 214.081 100.266 214.3 99.3913 214.3C99.1679 214.3 98.9583 214.282 98.7623 214.245C98.2793 214.5 98.0377 214.822 98.0377 215.209C98.0377 215.414 98.122 215.567 98.2907 215.667C98.4593 215.763 98.7487 215.811 99.1588 215.811H100.485C101.296 215.811 101.918 215.981 102.351 216.323C102.789 216.665 103.007 217.162 103.007 217.813C103.007 218.643 102.675 219.274 102.009 219.707C101.344 220.145 100.373 220.363 99.0973 220.363C98.1175 220.363 97.361 220.181 96.8278 219.816C96.2991 219.452 96.0348 218.937 96.0348 218.271C96.0348 217.816 96.1806 217.422 96.4723 217.089C96.764 216.756 97.1741 216.531 97.7028 216.412C97.5114 216.326 97.3496 216.191 97.2174 216.009C97.0898 215.826 97.026 215.615 97.026 215.373C97.026 215.1 97.0989 214.86 97.2448 214.655C97.3906 214.45 97.6207 214.252 97.9352 214.061C97.5478 213.901 97.2311 213.63 96.985 213.247C96.7435 212.864 96.6227 212.427 96.6227 211.935C96.6227 211.114 96.8688 210.483 97.361 210.041C97.8532 209.594 98.5504 209.371 99.4528 209.371C99.8447 209.371 100.198 209.417 100.512 209.508H103.103ZM97.1286 218.258C97.1286 218.663 97.2995 218.971 97.6413 219.181C97.983 219.39 98.473 219.495 99.111 219.495C100.063 219.495 100.768 219.352 101.223 219.064C101.684 218.782 101.914 218.397 101.914 217.909C101.914 217.504 101.788 217.221 101.538 217.062C101.287 216.907 100.815 216.829 100.123 216.829H98.7623C98.2474 216.829 97.8463 216.952 97.5592 217.198C97.2721 217.444 97.1286 217.798 97.1286 218.258ZM97.7438 211.907C97.7438 212.431 97.8919 212.828 98.1881 213.097C98.4843 213.366 98.8968 213.5 99.4254 213.5C100.533 213.5 101.087 212.962 101.087 211.887C101.087 210.761 100.526 210.198 99.4049 210.198C98.8717 210.198 98.4616 210.342 98.1745 210.629C97.8873 210.916 97.7438 211.342 97.7438 211.907ZM105.498 209.508V214.368C105.498 214.979 105.637 215.435 105.915 215.735C106.193 216.036 106.628 216.187 107.22 216.187C108.004 216.187 108.576 215.972 108.936 215.544C109.301 215.116 109.483 214.416 109.483 213.445V209.508H110.618V217H109.681L109.517 215.995H109.456C109.223 216.364 108.9 216.647 108.485 216.843C108.075 217.039 107.605 217.137 107.077 217.137C106.165 217.137 105.482 216.92 105.026 216.487C104.575 216.054 104.349 215.362 104.349 214.409V209.508H105.498ZM115.986 217.137C114.878 217.137 114.003 216.799 113.361 216.125C112.723 215.451 112.404 214.514 112.404 213.315C112.404 212.108 112.7 211.148 113.293 210.438C113.89 209.727 114.689 209.371 115.692 209.371C116.631 209.371 117.374 209.681 117.92 210.301C118.467 210.916 118.741 211.729 118.741 212.741V213.459H113.58C113.602 214.339 113.823 215.006 114.243 215.462C114.667 215.918 115.261 216.146 116.027 216.146C116.834 216.146 117.631 215.977 118.419 215.64V216.651C118.018 216.825 117.638 216.948 117.278 217.021C116.922 217.098 116.492 217.137 115.986 217.137ZM115.678 210.321C115.077 210.321 114.596 210.517 114.236 210.909C113.88 211.301 113.671 211.843 113.607 212.536H117.524C117.524 211.821 117.364 211.274 117.045 210.896C116.726 210.513 116.271 210.321 115.678 210.321ZM123.89 209.371C124.223 209.371 124.521 209.398 124.786 209.453L124.628 210.506C124.319 210.438 124.045 210.403 123.808 210.403C123.202 210.403 122.682 210.649 122.25 211.142C121.821 211.634 121.607 212.247 121.607 212.98V217H120.472V209.508H121.409L121.539 210.896H121.593C121.871 210.408 122.206 210.032 122.598 209.768C122.99 209.503 123.421 209.371 123.89 209.371ZM127.112 217H125.977V209.508H127.112V217ZM125.881 207.478C125.881 207.218 125.945 207.029 126.073 206.91C126.2 206.787 126.36 206.726 126.551 206.726C126.734 206.726 126.891 206.787 127.023 206.91C127.155 207.033 127.221 207.222 127.221 207.478C127.221 207.733 127.155 207.924 127.023 208.052C126.891 208.175 126.734 208.236 126.551 208.236C126.36 208.236 126.2 208.175 126.073 208.052C125.945 207.924 125.881 207.733 125.881 207.478ZM131.728 216.2C131.928 216.2 132.122 216.187 132.309 216.159C132.496 216.127 132.644 216.095 132.753 216.063V216.932C132.63 216.991 132.448 217.039 132.206 217.075C131.97 217.116 131.755 217.137 131.564 217.137C130.115 217.137 129.39 216.373 129.39 214.847V210.39H128.317V209.843L129.39 209.371L129.869 207.771H130.525V209.508H132.699V210.39H130.525V214.799C130.525 215.25 130.632 215.596 130.846 215.838C131.06 216.079 131.354 216.2 131.728 216.2ZM138.655 217L138.429 215.934H138.374C138.001 216.403 137.627 216.722 137.253 216.891C136.884 217.055 136.422 217.137 135.866 217.137C135.123 217.137 134.539 216.945 134.116 216.562C133.696 216.18 133.487 215.635 133.487 214.929C133.487 213.416 134.697 212.623 137.117 212.55L138.388 212.509V212.044C138.388 211.456 138.26 211.023 138.005 210.745C137.755 210.463 137.351 210.321 136.795 210.321C136.171 210.321 135.465 210.513 134.676 210.896L134.328 210.027C134.697 209.827 135.1 209.67 135.537 209.556C135.98 209.442 136.422 209.385 136.864 209.385C137.757 209.385 138.418 209.583 138.846 209.979C139.279 210.376 139.496 211.012 139.496 211.887V217H138.655ZM136.091 216.2C136.798 216.2 137.351 216.007 137.752 215.619C138.158 215.232 138.361 214.689 138.361 213.992V213.315L137.226 213.363C136.324 213.395 135.672 213.536 135.271 213.787C134.874 214.033 134.676 214.418 134.676 214.942C134.676 215.353 134.799 215.665 135.045 215.879C135.296 216.093 135.645 216.2 136.091 216.2Z" fill="#9E9E9E"/>
<path d="M39.3418 100.197H40.2383C41.0762 100.197 41.7031 100.033 42.1191 99.7051C42.5352 99.3711 42.7432 98.8877 42.7432 98.2549C42.7432 97.6162 42.5674 97.1445 42.2158 96.8398C41.8701 96.5352 41.3252 96.3828 40.5811 96.3828H39.3418V100.197ZM45.4941 98.1582C45.4941 99.541 45.0605 100.599 44.1934 101.331C43.332 102.063 42.1045 102.43 40.5107 102.43H39.3418V107H36.6172V94.1504H40.7217C42.2803 94.1504 43.4639 94.4873 44.2725 95.1611C45.0869 95.8291 45.4941 96.8281 45.4941 98.1582ZM55.0503 107H47.6499V94.1504H55.0503V96.3828H50.3745V99.2041H54.7251V101.437H50.3745V104.75H55.0503V107ZM68.1309 100.452C68.1309 102.567 67.5274 104.188 66.3204 105.312C65.1192 106.438 63.3819 107 61.1084 107H57.4698V94.1504H61.5039C63.6016 94.1504 65.2305 94.7041 66.3907 95.8115C67.5508 96.9189 68.1309 98.4658 68.1309 100.452ZM65.3008 100.522C65.3008 97.7627 64.0821 96.3828 61.6446 96.3828H60.1944V104.75H61.3633C63.9883 104.75 65.3008 103.341 65.3008 100.522ZM70.524 107V94.1504H73.2486V107H70.524ZM86.8741 100.452C86.8741 102.567 86.2706 104.188 85.0636 105.312C83.8624 106.438 82.1251 107 79.8516 107H76.213V94.1504H80.2471C82.3448 94.1504 83.9737 94.7041 85.1339 95.8115C86.294 96.9189 86.8741 98.4658 86.8741 100.452ZM84.044 100.522C84.044 97.7627 82.8253 96.3828 80.3878 96.3828H78.9376V104.75H80.1065C82.7315 104.75 84.044 103.341 84.044 100.522ZM100.93 100.558C100.93 102.685 100.403 104.319 99.3482 105.462C98.2936 106.604 96.7818 107.176 94.8131 107.176C92.8443 107.176 91.3326 106.604 90.2779 105.462C89.2232 104.319 88.6959 102.679 88.6959 100.54C88.6959 98.4014 89.2232 96.7695 90.2779 95.6445C91.3385 94.5137 92.8561 93.9482 94.8307 93.9482C96.8053 93.9482 98.3141 94.5166 99.357 95.6533C100.406 96.79 100.93 98.4248 100.93 100.558ZM91.5523 100.558C91.5523 101.993 91.8248 103.074 92.3697 103.801C92.9146 104.527 93.7291 104.891 94.8131 104.891C96.9869 104.891 98.0738 103.446 98.0738 100.558C98.0738 97.6631 96.9928 96.2158 94.8307 96.2158C93.7467 96.2158 92.9293 96.582 92.3785 97.3145C91.8277 98.041 91.5523 99.1221 91.5523 100.558ZM113.548 107H110.832V99.5645L110.858 98.3428L110.902 97.0068C110.451 97.458 110.137 97.7539 109.962 97.8945L108.485 99.0811L107.175 97.4463L111.315 94.1504H113.548V107Z" fill="#263238"/>
<path d="M312.036 99.8545H312.915C313.777 99.8545 314.412 99.7109 314.823 99.4238C315.233 99.1367 315.438 98.6855 315.438 98.0703C315.438 97.4609 315.227 97.0273 314.805 96.7695C314.389 96.5117 313.742 96.3828 312.863 96.3828H312.036V99.8545ZM312.036 102.069V107H309.312V94.1504H313.056C314.802 94.1504 316.094 94.4697 316.932 95.1084C317.77 95.7412 318.189 96.7051 318.189 98C318.189 98.7559 317.981 99.4297 317.565 100.021C317.149 100.607 316.56 101.067 315.798 101.401C317.732 104.29 318.992 106.156 319.577 107H316.554L313.487 102.069H312.036ZM328.905 102.983C328.905 103.915 328.568 104.665 327.894 105.233C327.221 105.796 326.277 106.133 325.064 106.244V108.046H323.86V106.279C322.431 106.25 321.177 105.998 320.099 105.523V103.203C320.608 103.455 321.221 103.678 321.935 103.871C322.656 104.064 323.298 104.179 323.86 104.214V101.489L323.271 101.261C322.111 100.804 321.288 100.309 320.802 99.7754C320.321 99.2363 320.081 98.5713 320.081 97.7803C320.081 96.9307 320.412 96.2334 321.074 95.6885C321.742 95.1377 322.671 94.8037 323.86 94.6865V93.3418H325.064V94.6514C326.406 94.71 327.619 94.9795 328.703 95.46L327.877 97.5166C326.963 97.1416 326.025 96.9131 325.064 96.8311V99.4238C326.207 99.8633 327.018 100.244 327.499 100.566C327.985 100.889 328.34 101.243 328.562 101.63C328.791 102.017 328.905 102.468 328.905 102.983ZM326.26 103.115C326.26 102.869 326.16 102.661 325.961 102.491C325.762 102.321 325.463 102.146 325.064 101.964V104.152C325.861 104.018 326.26 103.672 326.26 103.115ZM322.726 97.7803C322.726 98.0381 322.814 98.252 322.99 98.4219C323.172 98.5859 323.462 98.7559 323.86 98.9316V96.8662C323.104 96.9775 322.726 97.2822 322.726 97.7803ZM342.929 97.0244C342.929 97.8271 342.685 98.5098 342.199 99.0723C341.713 99.6348 341.03 100.021 340.151 100.232V100.285C341.188 100.414 341.974 100.73 342.507 101.234C343.04 101.732 343.307 102.406 343.307 103.256C343.307 104.492 342.858 105.456 341.962 106.147C341.065 106.833 339.785 107.176 338.121 107.176C336.726 107.176 335.49 106.944 334.412 106.481V104.17C334.91 104.422 335.458 104.627 336.056 104.785C336.653 104.943 337.245 105.022 337.831 105.022C338.727 105.022 339.39 104.87 339.817 104.565C340.245 104.261 340.459 103.771 340.459 103.098C340.459 102.494 340.213 102.066 339.721 101.814C339.228 101.562 338.443 101.437 337.365 101.437H336.39V99.3535H337.383C338.379 99.3535 339.105 99.2246 339.562 98.9668C340.025 98.7031 340.257 98.2549 340.257 97.6221C340.257 96.6494 339.647 96.1631 338.429 96.1631C338.007 96.1631 337.576 96.2334 337.137 96.374C336.703 96.5146 336.22 96.7578 335.686 97.1035L334.43 95.2314C335.601 94.3877 336.999 93.9658 338.622 93.9658C339.952 93.9658 341.001 94.2354 341.768 94.7744C342.542 95.3135 342.929 96.0635 342.929 97.0244ZM349.136 98.791C350.378 98.791 351.366 99.1396 352.098 99.8369C352.836 100.534 353.206 101.489 353.206 102.702C353.206 104.138 352.763 105.242 351.878 106.016C350.994 106.789 349.728 107.176 348.081 107.176C346.652 107.176 345.497 106.944 344.619 106.481V104.135C345.081 104.381 345.621 104.583 346.236 104.741C346.851 104.894 347.434 104.97 347.985 104.97C349.643 104.97 350.472 104.29 350.472 102.931C350.472 101.636 349.614 100.988 347.897 100.988C347.586 100.988 347.244 101.021 346.869 101.085C346.494 101.144 346.189 101.208 345.955 101.278L344.873 100.698L345.357 94.1504H352.327V96.4531H347.739L347.501 98.9756L347.809 98.9141C348.166 98.832 348.609 98.791 349.136 98.791ZM357.787 105.11C357.482 106.294 356.967 107.697 356.24 109.32H354.307C354.687 107.762 354.983 106.291 355.194 104.908H357.655L357.787 105.11ZM368.354 99.6348C368.354 102.166 367.821 104.056 366.754 105.304C365.688 106.552 364.074 107.176 361.912 107.176C361.15 107.176 360.573 107.135 360.18 107.053V104.873C360.672 104.996 361.188 105.058 361.727 105.058C362.635 105.058 363.382 104.926 363.968 104.662C364.554 104.393 365.002 103.974 365.313 103.405C365.624 102.831 365.802 102.043 365.849 101.041H365.744C365.404 101.592 365.011 101.979 364.566 102.201C364.121 102.424 363.564 102.535 362.896 102.535C361.777 102.535 360.895 102.178 360.25 101.463C359.606 100.742 359.284 99.7432 359.284 98.4658C359.284 97.0889 359.673 96.002 360.453 95.2051C361.238 94.4023 362.304 94.001 363.652 94.001C364.601 94.001 365.43 94.2236 366.139 94.6689C366.854 95.1143 367.402 95.7617 367.783 96.6113C368.164 97.4551 368.354 98.4629 368.354 99.6348ZM363.705 96.1807C363.142 96.1807 362.703 96.374 362.386 96.7607C362.07 97.1475 361.912 97.7041 361.912 98.4307C361.912 99.0518 362.055 99.5439 362.342 99.9072C362.629 100.271 363.066 100.452 363.652 100.452C364.203 100.452 364.674 100.273 365.067 99.916C365.459 99.5527 365.656 99.1367 365.656 98.668C365.656 97.9707 365.471 97.3818 365.102 96.9014C364.739 96.4209 364.273 96.1807 363.705 96.1807ZM378.35 100.575C378.35 102.819 377.98 104.48 377.242 105.559C376.51 106.637 375.379 107.176 373.85 107.176C372.367 107.176 371.248 106.619 370.492 105.506C369.742 104.393 369.367 102.749 369.367 100.575C369.367 98.3076 369.733 96.6377 370.466 95.5654C371.198 94.4873 372.326 93.9482 373.85 93.9482C375.332 93.9482 376.451 94.5107 377.207 95.6357C377.969 96.7607 378.35 98.4072 378.35 100.575ZM372.065 100.575C372.065 102.151 372.2 103.282 372.47 103.968C372.745 104.647 373.205 104.987 373.85 104.987C374.482 104.987 374.939 104.642 375.221 103.95C375.502 103.259 375.643 102.134 375.643 100.575C375.643 98.999 375.499 97.8682 375.212 97.1826C374.931 96.4912 374.477 96.1455 373.85 96.1455C373.211 96.1455 372.754 96.4912 372.479 97.1826C372.203 97.8682 372.065 98.999 372.065 100.575Z" fill="#DA5C5C"/>
<path d="M35 152.5L378.5 152.5" stroke="#E6E6E6"/>
<defs>
<filter id="filter0_d" x="0" y="54" width="414" height="215" filterUnits="userSpaceOnUse" color-interpolation-filters="sRGB">
<feFlood flood-opacity="0" result="BackgroundImageFix"/>
<feColorMatrix in="SourceAlpha" type="matrix" values="0 0 0 0 0 0 0 0 0 0 0 0 0 0 0 0 0 0 127 0"/>
<feOffset dy="4"/>
<feGaussianBlur stdDeviation="10"/>
<feColorMatrix type="matrix" values="0 0 0 0 0 0 0 0 0 0 0 0 0 0 0 0 0 0 0.25 0"/>
<feBlend mode="normal" in2="BackgroundImageFix" result="effect1_dropShadow"/>
<feBlend mode="normal" in="SourceGraphic" in2="effect1_dropShadow" result="shape"/>
</filter>
</defs>
</svg>
